# xmcd
#
# Track frame offsets: 
#        150
#        6357
#        40072
#        58368
#        94138
#        124280
#        145315
#        174118
#        193390
#        209999
#        246763
#
# Disc length: 3918 seconds
#
# Revision: 0
# Processed by: cddbd v1.5.2PL0 Copyright (c) Steve Scherf et al.
# Submitted via: ExactAudioCopy v0.99pb5
#
DISCID=ab0f4c0b
DTITLE=David Grisman and Martin Taylor - David Grisman and Martin Tayl
DTITLE=or - 11_08_1996 - Luther Burbank Center - Santa Rosa, CA
DYEAR=1996
DGENRE=Acoustic
TTITLE0=Intro
TTITLE1=Mugavero
TTITLE2=It Had To Be You
TTITLE3=Swing 42
TTITLE4=Nuages
TTITLE5=Out Of Nowhere
TTITLE6=Just Squeeze Me
TTITLE7=Tears
TTITLE8=Please
TTITLE9=Besame Mucho
TTITLE10=Dawgmatism - Dawgma
EXTD=David Grisman (mandolin]\nMartin Taylor (guitar]\nDG Solo - T8, T
EXTD=17\nMT Solo - T7, T18\nSBD > Sony PCM-F1 16 bit-44khz recorder > 
EXTD=CDR
EXTT0=
EXTT1=
EXTT2=
EXTT3=
EXTT4=
EXTT5=
EXTT6=
EXTT7=
EXTT8=
EXTT9=
EXTT10=
PLAYORDER=
